<svg xmlns="http://www.w3.org/2000/svg" width="375" height="279" viewBox="0 0 375 279"><g fill="#F1F1F1" fill-rule="evenodd"><circle cx="99.5" cy="3.5" r="3.5"/><circle cx="99.5" cy="51.5" r="3.5"/><circle cx="99.5" cy="19.5" r="3.5"/><circle cx="99.5" cy="67.5" r="3.5"/><circle cx="99.5" cy="35.5" r="3.5"/><circle cx="99.5" cy="83.5" r="3.5"/><circle cx="3.5" cy="3.5" r="3.5"/><circle cx="3.5" cy="51.5" r="3.5"/><circle cx="3.5" cy="19.5" r="3.5"/><circle cx="3.5" cy="67.5" r="3.5"/><circle cx="3.5" cy="35.5" r="3.5"/><circle cx="3.5" cy="83.5" r="3.5"/><circle cx="131.5" cy="3.5" r="3.5"/><circle cx="131.5" cy="51.5" r="3.5"/><circle cx="131.5" cy="19.5" r="3.5"/><circle cx="131.5" cy="67.5" r="3.5"/><circle cx="131.5" cy="35.5" r="3.5"/><circle cx="131.5" cy="83.5" r="3.5"/><circle cx="35.5" cy="3.5" r="3.5"/><circle cx="35.5" cy="51.5" r="3.5"/><circle cx="35.5" cy="19.5" r="3.5"/><circle cx="35.5" cy="67.5" r="3.5"/><circle cx="35.5" cy="35.5" r="3.5"/><circle cx="35.5" cy="83.5" r="3.5"/><circle cx="163.5" cy="3.5" r="3.5"/><circle cx="163.5" cy="51.5" r="3.5"/><circle cx="163.5" cy="19.5" r="3.5"/><circle cx="163.5" cy="67.5" r="3.5"/><circle cx="163.5" cy="35.5" r="3.5"/><circle cx="163.5" cy="83.5" r="3.5"/><circle cx="67.5" cy="3.5" r="3.5"/><circle cx="67.5" cy="51.5" r="3.5"/><circle cx="67.5" cy="19.5" r="3.5"/><circle cx="67.5" cy="67.5" r="3.5"/><circle cx="67.5" cy="35.5" r="3.5"/><circle cx="67.5" cy="83.5" r="3.5"/><circle cx="115.5" cy="3.5" r="3.5"/><circle cx="115.5" cy="51.5" r="3.5"/><circle cx="115.5" cy="19.5" r="3.5"/><circle cx="115.5" cy="67.5" r="3.5"/><circle cx="115.5" cy="35.5" r="3.5"/><circle cx="115.5" cy="83.5" r="3.5"/><circle cx="19.5" cy="3.5" r="3.5"/><circle cx="19.5" cy="51.5" r="3.5"/><circle cx="19.5" cy="19.5" r="3.5"/><circle cx="19.5" cy="67.5" r="3.5"/><circle cx="19.5" cy="35.5" r="3.5"/><circle cx="19.5" cy="83.5" r="3.5"/><circle cx="147.5" cy="3.5" r="3.5"/><circle cx="147.5" cy="51.5" r="3.5"/><circle cx="147.5" cy="19.5" r="3.5"/><circle cx="147.5" cy="67.5" r="3.5"/><circle cx="147.5" cy="35.5" r="3.5"/><circle cx="147.5" cy="83.5" r="3.5"/><circle cx="51.5" cy="3.5" r="3.5"/><circle cx="51.5" cy="51.5" r="3.5"/><circle cx="51.5" cy="19.5" r="3.5"/><circle cx="51.5" cy="67.5" r="3.5"/><circle cx="51.5" cy="35.5" r="3.5"/><circle cx="51.5" cy="83.5" r="3.5"/><circle cx="179.5" cy="3.5" r="3.5"/><circle cx="179.5" cy="51.5" r="3.5"/><circle cx="179.5" cy="19.5" r="3.5"/><circle cx="179.5" cy="67.5" r="3.5"/><circle cx="179.5" cy="35.5" r="3.5"/><circle cx="179.5" cy="83.5" r="3.5"/><circle cx="83.5" cy="3.5" r="3.5"/><circle cx="83.5" cy="51.5" r="3.5"/><circle cx="83.5" cy="19.5" r="3.5"/><circle cx="83.5" cy="67.5" r="3.5"/><circle cx="83.5" cy="35.5" r="3.5"/><circle cx="83.5" cy="83.5" r="3.5"/><g transform="translate(192)"><circle cx="99.5" cy="3.5" r="3.5"/><circle cx="99.5" cy="51.5" r="3.5"/><circle cx="99.5" cy="19.5" r="3.5"/><circle cx="99.5" cy="67.5" r="3.5"/><circle cx="99.5" cy="35.5" r="3.5"/><circle cx="99.5" cy="83.5" r="3.5"/><circle cx="3.5" cy="3.5" r="3.5"/><circle cx="3.5" cy="51.5" r="3.5"/><circle cx="3.5" cy="19.5" r="3.5"/><circle cx="3.5" cy="67.5" r="3.5"/><circle cx="3.5" cy="35.5" r="3.5"/><circle cx="3.5" cy="83.5" r="3.5"/><circle cx="131.5" cy="3.5" r="3.5"/><circle cx="131.5" cy="51.5" r="3.5"/><circle cx="131.5" cy="19.5" r="3.5"/><circle cx="131.5" cy="67.5" r="3.5"/><circle cx="131.5" cy="35.5" r="3.5"/><circle cx="131.5" cy="83.5" r="3.5"/><circle cx="35.5" cy="3.5" r="3.5"/><circle cx="35.5" cy="51.5" r="3.5"/><circle cx="35.5" cy="19.5" r="3.5"/><circle cx="35.5" cy="67.5" r="3.5"/><circle cx="35.5" cy="35.5" r="3.5"/><circle cx="35.5" cy="83.5" r="3.5"/><circle cx="163.5" cy="3.5" r="3.5"/><circle cx="163.5" cy="51.5" r="3.5"/><circle cx="163.5" cy="19.5" r="3.5"/><circle cx="163.5" cy="67.5" r="3.5"/><circle cx="163.5" cy="35.5" r="3.5"/><circle cx="163.5" cy="83.5" r="3.5"/><circle cx="67.5" cy="3.5" r="3.5"/><circle cx="67.5" cy="51.5" r="3.5"/><circle cx="67.5" cy="19.5" r="3.5"/><circle cx="67.5" cy="67.5" r="3.5"/><circle cx="67.5" cy="35.5" r="3.5"/><circle cx="67.5" cy="83.5" r="3.5"/><circle cx="115.5" cy="3.5" r="3.5"/><circle cx="115.5" cy="51.5" r="3.5"/><circle cx="115.5" cy="19.5" r="3.5"/><circle cx="115.5" cy="67.5" r="3.5"/><circle cx="115.5" cy="35.5" r="3.5"/><circle cx="115.5" cy="83.5" r="3.5"/><circle cx="19.5" cy="3.5" r="3.5"/><circle cx="19.5" cy="51.5" r="3.5"/><circle cx="19.5" cy="19.5" r="3.5"/><circle cx="19.5" cy="67.5" r="3.5"/><circle cx="19.5" cy="35.5" r="3.5"/><circle cx="19.5" cy="83.5" r="3.5"/><circle cx="147.5" cy="3.5" r="3.5"/><circle cx="147.5" cy="51.5" r="3.5"/><circle cx="147.5" cy="19.5" r="3.5"/><circle cx="147.5" cy="67.5" r="3.5"/><circle cx="147.5" cy="35.5" r="3.5"/><circle cx="147.5" cy="83.5" r="3.5"/><circle cx="51.5" cy="3.5" r="3.5"/><circle cx="51.5" cy="51.5" r="3.5"/><circle cx="51.5" cy="19.5" r="3.5"/><circle cx="51.5" cy="67.5" r="3.5"/><circle cx="51.5" cy="35.5" r="3.5"/><circle cx="51.5" cy="83.5" r="3.5"/><circle cx="179.5" cy="3.5" r="3.5"/><circle cx="179.5" cy="51.5" r="3.5"/><circle cx="179.5" cy="19.5" r="3.5"/><circle cx="179.5" cy="67.5" r="3.5"/><circle cx="179.5" cy="35.5" r="3.5"/><circle cx="179.5" cy="83.5" r="3.5"/><circle cx="83.5" cy="3.5" r="3.5"/><circle cx="83.5" cy="51.5" r="3.5"/><circle cx="83.5" cy="19.5" r="3.5"/><circle cx="83.5" cy="67.5" r="3.5"/><circle cx="83.5" cy="35.5" r="3.5"/><circle cx="83.5" cy="83.5" r="3.5"/></g><g transform="translate(0 96)"><circle cx="99.5" cy="3.5" r="3.5"/><circle cx="99.5" cy="51.5" r="3.5"/><circle cx="99.5" cy="19.5" r="3.5"/><circle cx="99.5" cy="67.5" r="3.5"/><circle cx="99.5" cy="35.5" r="3.5"/><circle cx="99.5" cy="83.5" r="3.5"/><circle cx="3.5" cy="3.5" r="3.5"/><circle cx="3.5" cy="51.5" r="3.5"/><circle cx="3.5" cy="19.5" r="3.5"/><circle cx="3.5" cy="67.5" r="3.5"/><circle cx="3.5" cy="35.5" r="3.5"/><circle cx="3.5" cy="83.5" r="3.5"/><circle cx="131.5" cy="3.5" r="3.5"/><circle cx="131.5" cy="51.5" r="3.5"/><circle cx="131.5" cy="19.5" r="3.5"/><circle cx="131.5" cy="67.5" r="3.5"/><circle cx="131.5" cy="35.5" r="3.5"/><circle cx="131.5" cy="83.5" r="3.5"/><circle cx="35.5" cy="3.5" r="3.5"/><circle cx="35.5" cy="51.5" r="3.5"/><circle cx="35.5" cy="19.5" r="3.5"/><circle cx="35.5" cy="67.5" r="3.5"/><circle cx="35.5" cy="35.5" r="3.5"/><circle cx="35.5" cy="83.5" r="3.5"/><circle cx="163.5" cy="3.5" r="3.5"/><circle cx="163.5" cy="51.5" r="3.5"/><circle cx="163.5" cy="19.5" r="3.5"/><circle cx="163.5" cy="67.5" r="3.5"/><circle cx="163.5" cy="35.5" r="3.5"/><circle cx="163.5" cy="83.5" r="3.5"/><circle cx="67.5" cy="3.5" r="3.5"/><circle cx="67.5" cy="51.5" r="3.5"/><circle cx="67.5" cy="19.5" r="3.5"/><circle cx="67.5" cy="67.5" r="3.5"/><circle cx="67.5" cy="35.5" r="3.5"/><circle cx="67.5" cy="83.5" r="3.5"/><circle cx="115.5" cy="3.5" r="3.5"/><circle cx="115.5" cy="51.5" r="3.5"/><circle cx="115.5" cy="19.5" r="3.5"/><circle cx="115.5" cy="67.5" r="3.5"/><circle cx="115.5" cy="35.5" r="3.5"/><circle cx="115.5" cy="83.5" r="3.5"/><circle cx="19.5" cy="3.5" r="3.5"/><circle cx="19.5" cy="51.5" r="3.5"/><circle cx="19.5" cy="19.5" r="3.5"/><circle cx="19.5" cy="67.5" r="3.5"/><circle cx="19.5" cy="35.5" r="3.5"/><circle cx="19.5" cy="83.5" r="3.5"/><circle cx="147.5" cy="3.5" r="3.5"/><circle cx="147.5" cy="51.5" r="3.5"/><circle cx="147.5" cy="19.5" r="3.5"/><circle cx="147.5" cy="67.5" r="3.5"/><circle cx="147.5" cy="35.5" r="3.5"/><circle cx="147.5" cy="83.5" r="3.5"/><circle cx="51.5" cy="3.5" r="3.5"/><circle cx="51.5" cy="51.5" r="3.5"/><circle cx="51.5" cy="19.5" r="3.5"/><circle cx="51.5" cy="67.5" r="3.5"/><circle cx="51.5" cy="35.5" r="3.5"/><circle cx="51.5" cy="83.5" r="3.5"/><circle cx="179.5" cy="3.5" r="3.5"/><circle cx="179.5" cy="51.5" r="3.5"/><circle cx="179.5" cy="19.5" r="3.5"/><circle cx="179.5" cy="67.5" r="3.5"/><circle cx="179.5" cy="35.5" r="3.5"/><circle cx="179.5" cy="83.5" r="3.5"/><circle cx="83.5" cy="3.5" r="3.5"/><circle cx="83.5" cy="51.5" r="3.5"/><circle cx="83.5" cy="19.5" r="3.5"/><circle cx="83.5" cy="67.5" r="3.5"/><circle cx="83.5" cy="35.5" r="3.5"/><circle cx="83.5" cy="83.5" r="3.5"/></g><g transform="translate(192 96)"><circle cx="99.5" cy="3.5" r="3.5"/><circle cx="99.5" cy="51.5" r="3.5"/><circle cx="99.5" cy="19.5" r="3.5"/><circle cx="99.5" cy="67.5" r="3.5"/><circle cx="99.5" cy="35.5" r="3.5"/><circle cx="99.5" cy="83.5" r="3.5"/><circle cx="3.5" cy="3.5" r="3.5"/><circle cx="3.5" cy="51.5" r="3.5"/><circle cx="3.5" cy="19.5" r="3.5"/><circle cx="3.5" cy="67.5" r="3.5"/><circle cx="3.5" cy="35.5" r="3.5"/><circle cx="3.5" cy="83.5" r="3.5"/><circle cx="131.5" cy="3.5" r="3.5"/><circle cx="131.5" cy="51.5" r="3.5"/><circle cx="131.5" cy="19.5" r="3.5"/><circle cx="131.5" cy="67.5" r="3.5"/><circle cx="131.5" cy="35.5" r="3.5"/><circle cx="131.5" cy="83.5" r="3.5"/><circle cx="35.5" cy="3.5" r="3.5"/><circle cx="35.5" cy="51.5" r="3.5"/><circle cx="35.5" cy="19.5" r="3.5"/><circle cx="35.5" cy="67.5" r="3.5"/><circle cx="35.5" cy="35.5" r="3.5"/><circle cx="35.5" cy="83.5" r="3.5"/><circle cx="163.5" cy="3.5" r="3.5"/><circle cx="163.5" cy="51.5" r="3.5"/><circle cx="163.5" cy="19.5" r="3.5"/><circle cx="163.5" cy="67.5" r="3.5"/><circle cx="163.5" cy="35.5" r="3.5"/><circle cx="163.5" cy="83.5" r="3.5"/><circle cx="67.5" cy="3.5" r="3.5"/><circle cx="67.5" cy="51.5" r="3.5"/><circle cx="67.5" cy="19.5" r="3.5"/><circle cx="67.5" cy="67.5" r="3.5"/><circle cx="67.5" cy="35.5" r="3.5"/><circle cx="67.5" cy="83.5" r="3.5"/><circle cx="115.5" cy="3.5" r="3.5"/><circle cx="115.5" cy="51.5" r="3.5"/><circle cx="115.5" cy="19.5" r="3.5"/><circle cx="115.5" cy="67.5" r="3.5"/><circle cx="115.5" cy="35.5" r="3.5"/><circle cx="115.5" cy="83.5" r="3.5"/><circle cx="19.5" cy="3.5" r="3.5"/><circle cx="19.5" cy="51.5" r="3.5"/><circle cx="19.5" cy="19.5" r="3.5"/><circle cx="19.5" cy="67.5" r="3.5"/><circle cx="19.5" cy="35.5" r="3.5"/><circle cx="19.5" cy="83.5" r="3.5"/><circle cx="147.5" cy="3.5" r="3.5"/><circle cx="147.5" cy="51.5" r="3.5"/><circle cx="147.5" cy="19.5" r="3.5"/><circle cx="147.5" cy="67.5" r="3.5"/><circle cx="147.5" cy="35.5" r="3.5"/><circle cx="147.5" cy="83.5" r="3.5"/><circle cx="51.5" cy="3.5" r="3.5"/><circle cx="51.5" cy="51.5" r="3.5"/><circle cx="51.5" cy="19.5" r="3.5"/><circle cx="51.5" cy="67.5" r="3.5"/><circle cx="51.5" cy="35.5" r="3.5"/><circle cx="51.5" cy="83.5" r="3.5"/><circle cx="179.5" cy="3.5" r="3.5"/><circle cx="179.5" cy="51.5" r="3.5"/><circle cx="179.5" cy="19.5" r="3.5"/><circle cx="179.5" cy="67.5" r="3.5"/><circle cx="179.5" cy="35.5" r="3.5"/><circle cx="179.5" cy="83.5" r="3.5"/><circle cx="83.5" cy="3.5" r="3.5"/><circle cx="83.5" cy="51.5" r="3.5"/><circle cx="83.5" cy="19.5" r="3.5"/><circle cx="83.5" cy="67.5" r="3.5"/><circle cx="83.5" cy="35.5" r="3.5"/><circle cx="83.5" cy="83.5" r="3.5"/></g><g transform="translate(0 192)"><circle cx="99.5" cy="3.5" r="3.5"/><circle cx="99.5" cy="51.5" r="3.5"/><circle cx="99.5" cy="19.5" r="3.5"/><circle cx="99.5" cy="67.5" r="3.5"/><circle cx="99.5" cy="35.5" r="3.5"/><circle cx="99.5" cy="83.5" r="3.5"/><circle cx="3.5" cy="3.5" r="3.5"/><circle cx="3.5" cy="51.5" r="3.5"/><circle cx="3.5" cy="19.5" r="3.5"/><circle cx="3.5" cy="67.5" r="3.5"/><circle cx="3.5" cy="35.5" r="3.5"/><circle cx="3.5" cy="83.5" r="3.5"/><circle cx="131.5" cy="3.5" r="3.5"/><circle cx="131.5" cy="51.5" r="3.5"/><circle cx="131.5" cy="19.5" r="3.5"/><circle cx="131.5" cy="67.5" r="3.5"/><circle cx="131.5" cy="35.5" r="3.5"/><circle cx="131.5" cy="83.5" r="3.5"/><circle cx="35.5" cy="3.5" r="3.5"/><circle cx="35.5" cy="51.5" r="3.5"/><circle cx="35.5" cy="19.5" r="3.5"/><circle cx="35.5" cy="67.5" r="3.5"/><circle cx="35.5" cy="35.5" r="3.5"/><circle cx="35.5" cy="83.5" r="3.5"/><circle cx="163.5" cy="3.5" r="3.5"/><circle cx="163.5" cy="51.5" r="3.5"/><circle cx="163.5" cy="19.5" r="3.5"/><circle cx="163.5" cy="67.5" r="3.5"/><circle cx="163.5" cy="35.5" r="3.5"/><circle cx="163.5" cy="83.5" r="3.5"/><circle cx="67.5" cy="3.5" r="3.5"/><circle cx="67.5" cy="51.5" r="3.5"/><circle cx="67.5" cy="19.5" r="3.5"/><circle cx="67.5" cy="67.5" r="3.5"/><circle cx="67.5" cy="35.5" r="3.5"/><circle cx="67.5" cy="83.5" r="3.5"/><circle cx="115.5" cy="3.5" r="3.5"/><circle cx="115.5" cy="51.5" r="3.5"/><circle cx="115.5" cy="19.5" r="3.5"/><circle cx="115.5" cy="67.5" r="3.5"/><circle cx="115.5" cy="35.5" r="3.5"/><circle cx="115.5" cy="83.5" r="3.5"/><circle cx="19.5" cy="3.5" r="3.5"/><circle cx="19.5" cy="51.5" r="3.5"/><circle cx="19.5" cy="19.5" r="3.5"/><circle cx="19.5" cy="67.5" r="3.5"/><circle cx="19.5" cy="35.5" r="3.5"/><circle cx="19.5" cy="83.5" r="3.5"/><circle cx="147.5" cy="3.5" r="3.5"/><circle cx="147.5" cy="51.5" r="3.5"/><circle cx="147.5" cy="19.5" r="3.5"/><circle cx="147.5" cy="67.5" r="3.5"/><circle cx="147.5" cy="35.5" r="3.5"/><circle cx="147.5" cy="83.5" r="3.5"/><circle cx="51.5" cy="3.5" r="3.5"/><circle cx="51.5" cy="51.5" r="3.5"/><circle cx="51.5" cy="19.5" r="3.5"/><circle cx="51.5" cy="67.5" r="3.5"/><circle cx="51.5" cy="35.5" r="3.5"/><circle cx="51.5" cy="83.5" r="3.5"/><circle cx="179.5" cy="3.5" r="3.5"/><circle cx="179.5" cy="51.5" r="3.5"/><circle cx="179.5" cy="19.5" r="3.5"/><circle cx="179.5" cy="67.5" r="3.5"/><circle cx="179.5" cy="35.5" r="3.5"/><circle cx="179.5" cy="83.5" r="3.5"/><circle cx="83.5" cy="3.5" r="3.5"/><circle cx="83.5" cy="51.5" r="3.5"/><circle cx="83.5" cy="19.5" r="3.5"/><circle cx="83.5" cy="67.5" r="3.5"/><circle cx="83.5" cy="35.5" r="3.5"/><circle cx="83.5" cy="83.5" r="3.5"/></g><g transform="translate(192 192)"><circle cx="99.5" cy="3.5" r="3.5"/><circle cx="99.5" cy="51.5" r="3.5"/><circle cx="99.5" cy="19.5" r="3.5"/><circle cx="99.5" cy="67.5" r="3.5"/><circle cx="99.5" cy="35.5" r="3.5"/><circle cx="99.5" cy="83.5" r="3.5"/><circle cx="3.5" cy="3.5" r="3.5"/><circle cx="3.5" cy="51.5" r="3.5"/><circle cx="3.5" cy="19.5" r="3.5"/><circle cx="3.5" cy="67.5" r="3.5"/><circle cx="3.5" cy="35.5" r="3.5"/><circle cx="3.5" cy="83.5" r="3.5"/><circle cx="131.5" cy="3.5" r="3.5"/><circle cx="131.5" cy="51.5" r="3.5"/><circle cx="131.5" cy="19.5" r="3.5"/><circle cx="131.5" cy="67.5" r="3.5"/><circle cx="131.5" cy="35.5" r="3.5"/><circle cx="131.5" cy="83.5" r="3.5"/><circle cx="35.5" cy="3.5" r="3.5"/><circle cx="35.5" cy="51.5" r="3.5"/><circle cx="35.5" cy="19.5" r="3.5"/><circle cx="35.5" cy="67.5" r="3.5"/><circle cx="35.5" cy="35.5" r="3.5"/><circle cx="35.5" cy="83.5" r="3.5"/><circle cx="163.5" cy="3.5" r="3.5"/><circle cx="163.5" cy="51.5" r="3.5"/><circle cx="163.5" cy="19.5" r="3.5"/><circle cx="163.5" cy="67.5" r="3.5"/><circle cx="163.5" cy="35.5" r="3.5"/><circle cx="163.5" cy="83.5" r="3.5"/><circle cx="67.5" cy="3.5" r="3.5"/><circle cx="67.5" cy="51.5" r="3.5"/><circle cx="67.5" cy="19.5" r="3.5"/><circle cx="67.5" cy="67.5" r="3.5"/><circle cx="67.5" cy="35.5" r="3.5"/><circle cx="67.5" cy="83.5" r="3.5"/><circle cx="115.5" cy="3.5" r="3.5"/><circle cx="115.5" cy="51.5" r="3.5"/><circle cx="115.5" cy="19.5" r="3.5"/><circle cx="115.5" cy="67.5" r="3.5"/><circle cx="115.5" cy="35.5" r="3.5"/><circle cx="115.5" cy="83.5" r="3.5"/><circle cx="19.5" cy="3.5" r="3.5"/><circle cx="19.5" cy="51.5" r="3.5"/><circle cx="19.5" cy="19.5" r="3.5"/><circle cx="19.5" cy="67.5" r="3.5"/><circle cx="19.5" cy="35.5" r="3.5"/><circle cx="19.5" cy="83.5" r="3.5"/><circle cx="147.5" cy="3.5" r="3.5"/><circle cx="147.5" cy="51.5" r="3.5"/><circle cx="147.5" cy="19.5" r="3.5"/><circle cx="147.5" cy="67.5" r="3.5"/><circle cx="147.5" cy="35.5" r="3.5"/><circle cx="147.5" cy="83.5" r="3.5"/><circle cx="51.5" cy="3.5" r="3.5"/><circle cx="51.5" cy="51.5" r="3.5"/><circle cx="51.5" cy="19.5" r="3.5"/><circle cx="51.5" cy="67.5" r="3.5"/><circle cx="51.5" cy="35.5" r="3.5"/><circle cx="51.5" cy="83.5" r="3.5"/><circle cx="179.5" cy="3.5" r="3.5"/><circle cx="179.5" cy="51.5" r="3.5"/><circle cx="179.5" cy="19.5" r="3.5"/><circle cx="179.5" cy="67.5" r="3.5"/><circle cx="179.5" cy="35.5" r="3.5"/><circle cx="179.5" cy="83.5" r="3.5"/><circle cx="83.5" cy="3.5" r="3.5"/><circle cx="83.5" cy="51.5" r="3.5"/><circle cx="83.5" cy="19.5" r="3.5"/><circle cx="83.5" cy="67.5" r="3.5"/><circle cx="83.5" cy="35.5" r="3.5"/><circle cx="83.5" cy="83.5" r="3.5"/></g></g></svg>