<svg xmlns="http://www.w3.org/2000/svg" width="157" height="171" viewBox="0 0 157 171"><path fill="#162135" d="M143.401271 57.0002127C143.407872 57.4200386 143.411173 57.8427517 143.411173 58.2683521 143.411173 68.488097 140.822825 77.4893339 135.646129 85.2720627 130.584471 92.881842 123.357548 98.8005593 113.96536 103.028214L113.321628 103.313843 157 171 90.5118117 171 57.5103752 111.332412 55.8117719 111.332412 55.8117719 171 .0005189642 171 0 129.553091 143.401271 57.0002127ZM89.9700437 5.68434189e-14C98.2638484 5.68434189e-14 106.517779.817590126 114.731836 2.45277038 122.945892 4.08795063 130.28272 6.9689825 136.742317 11.095866 143.201915 15.2227495 148.425417 20.7512161 152.412824 27.6812657 154.475254 31.2657376 156.004303 35.318922 156.99997 39.8408189L17 110.999 17.0005117 5.68434189e-14 89.9700437 5.68434189e-14ZM85.1851563 43.2154781 71.5482274 43.2154781 71.5482274 69.8455565 82.7927127 69.8455565C84.7066676 69.8455565 86.8199928 69.689825 89.1326884 69.3783621 91.4453839 69.0668992 93.5985832 68.4050406 95.5922863 67.3927861 97.5859894 66.3805317 99.2606999 64.9789486 100.616418 63.1880369 101.972136 61.3971252 102.649995 59.0222205 102.649995 56.0633229 102.649995 53.1044253 102.091758 50.7684535 100.975285 49.0554076 99.8588108 47.3423616 98.4233446 46.0575771 96.668886 45.2010541 94.9144273 44.3445311 93.0004723 43.799471 90.9270211 43.5658739 88.85357 43.3322767 86.939615 43.2154781 85.1851563 43.2154781Z"/></svg>