{
    "asset" : {
        "generator" : "Khronos glTF Blender I/O v1.6.16",
        "version" : "2.0"
    },
    "scene" : 0,
    "scenes" : [
        {
            "name" : "Scene",
            "nodes" : [
                0
            ]
        }
    ],
    "nodes" : [
        {
            "mesh" : 0,
            "name" : "404-C159_Plane"
        }
    ],
    "materials" : [
        {
            "doubleSided" : true,
            "name" : "404-C159",
            "pbrMetallicRoughness" : {
                "metallicFactor" : 0,
                "roughnessFactor" : 0.8428571224212646
            }
        }
    ],
    "meshes" : [
        {
            "name" : "404-C159_Plane",
            "primitives" : [
                {
                    "attributes" : {
                        "POSITION" : 0,
                        "NORMAL" : 1,
                        "TEXCOORD_0" : 2
                    },
                    "indices" : 3,
                    "material" : 0
                }
            ]
        }
    ],
    "accessors" : [
        {
            "bufferView" : 0,
            "componentType" : 5126,
            "count" : 13434,
            "max" : [
                0.5500229597091675,
                0.5565930008888245,
                0.33254098892211914
            ],
            "min" : [
                -0.5500229597091675,
                -4.463472791371714e-08,
                -0.1321139633655548
            ],
            "type" : "VEC3"
        },
        {
            "bufferView" : 1,
            "componentType" : 5126,
            "count" : 13434,
            "type" : "VEC3"
        },
        {
            "bufferView" : 2,
            "componentType" : 5126,
            "count" : 13434,
            "type" : "VEC2"
        },
        {
            "bufferView" : 3,
            "componentType" : 5123,
            "count" : 38115,
            "type" : "SCALAR"
        }
    ],
    "bufferViews" : [
        {
            "buffer" : 0,
            "byteLength" : 161208,
            "byteOffset" : 0
        },
        {
            "buffer" : 0,
            "byteLength" : 161208,
            "byteOffset" : 161208
        },
        {
            "buffer" : 0,
            "byteLength" : 107472,
            "byteOffset" : 322416
        },
        {
            "buffer" : 0,
            "byteLength" : 76230,
            "byteOffset" : 429888
        }
    ],
    "buffers" : [
        {
            "byteLength" : 506120,
            "uri" : "data:application/octet-stream;base64,"
        }
    ]
}
